<svg height="40" xmlns="http://www.w3.org/2000/svg" viewBox="0 0 410.1 145.6">
    <defs>
        <style>.cls-1{fill:#fff;}.cls-2{font-size:45.35px;font-family:Poppins-Bold, Poppins;font-weight:700;}.cls-2,.cls-3{fill:#231f20;}    </style>
    </defs>
    <g id="Layer_2">
        <g id="Layer_1-2">
            <rect class="cls-1" width="410.1" height="145.6" rx="19.25"/>
            <text class="cls-2" transform="translate(197.61 111.93)">Apparel</text>
            <text class="cls-2" transform="translate(197.61 58.14)">Bongo</text>
            <path class="cls-3" d="M139.73,57.33C115,69.05,67.43,91.26,63.69,93a17.13,17.13,0,0,0-2.62-2.43h0A8.52,8.52,0,0,1,58.19,85c-.21-1.43.05-5.19,4-5.23a4,4,0,0,1,4.36,3.46s-3.27-.9-3.37,2.44c-.1,4,7,4.32,7.2-.82a8.15,8.15,0,0,0-9.06-8.36,7.56,7.56,0,0,0-6.67,7.67,16.34,16.34,0,0,0,1.51,7h0a22.18,22.18,0,0,0,0,6.9l-18.66,8.7a5.65,5.65,0,0,0-.73-1c-3.93-4.48-4.9-1-5,1.3A2.6,2.6,0,0,0,29,105.74c-2.13.23-3.52,1.81-3.24,5.25s3.78,8.92,6.5,8.75c1.43-.09,2.37-1.33,2.51-3.39l0,0c2.43,4.13,6.57,8,13.31,7.64A25.69,25.69,0,0,0,67.4,113a16.85,16.85,0,0,0,1-10.22c2.93-1.3,44.24-19.67,78.43-35.83,35.47-16.75,35.48-37.07,35.48-37.07S166.85,44.46,139.73,57.33ZM64.79,111.21s-4.26,9.09-16.64,9.22c-6.63.08-8.21-2.77-8.89-6.18l19.66-9.17a24.39,24.39,0,0,0,5.88,6.14Z"/>
            <polygon class="cls-1" points="99.7 85.55 97.25 85.01 67.41 98.12 69.28 98.94 99.7 85.55"/>
            <polygon class="cls-1" points="140.37 65.34 114.08 77.6 116.56 78.2 143.03 65.86 140.37 65.34"/>
            <path class="cls-1" d="M148.07,61.21C162.13,53,172.91,43.63,179,36c-3.76,6.63-13.42,15.91-29.22,25.85Z"/>
            <path class="cls-1" d="M57,92.52a42.37,42.37,0,0,0,.86,4.83,27.13,27.13,0,0,0,1.55,4.58,26.48,26.48,0,0,0,2.35,4.22,41.94,41.94,0,0,0,3,3.85,18.09,18.09,0,0,1-3.64-3.41,18.7,18.7,0,0,1-2.62-4.27A19.25,19.25,0,0,1,57,92.52Z"/>
            <path class="cls-3" d="M31.49,108.85c-1-3.77-6.32-1.22-3.94,4.05"/>
            <path class="cls-1" d="M31.49,108.85a3.77,3.77,0,0,0-.74-1,1.69,1.69,0,0,0-1-.42,2.16,2.16,0,0,0-1.75.91,3.8,3.8,0,0,0-.71,2.09,10,10,0,0,0,.22,2.45,4.85,4.85,0,0,1-1-2.43,3.76,3.76,0,0,1,.7-2.69,3,3,0,0,1,1.16-.92,2.34,2.34,0,0,1,1.5-.14,2,2,0,0,1,1.18.85A2.53,2.53,0,0,1,31.49,108.85Z"/>
            <path class="cls-3" d="M68.3,57.33C93,69.05,140.59,91.26,144.34,93A17.13,17.13,0,0,1,147,90.58h0A8.52,8.52,0,0,0,149.84,85c.21-1.43-.05-5.19-4-5.23a4,4,0,0,0-4.36,3.46s3.27-.9,3.37,2.44c.1,4-7,4.32-7.2-.82a8.14,8.14,0,0,1,9.06-8.36,7.56,7.56,0,0,1,6.67,7.67,16.52,16.52,0,0,1-1.51,7h0a22.18,22.18,0,0,1,0,6.9l18.66,8.7a5.65,5.65,0,0,1,.73-1c3.93-4.48,4.9-1,5,1.3a2.59,2.59,0,0,1,2.78-1.22c2.14.23,3.53,1.81,3.25,5.25s-3.78,8.92-6.5,8.75c-1.43-.09-2.38-1.33-2.51-3.39l0,0c-2.43,4.13-6.57,8-13.31,7.64a25.69,25.69,0,0,1-19.29-11,16.85,16.85,0,0,1-1-10.22c-2.92-1.3-44.23-19.67-78.42-35.83C25.73,50.19,25.72,29.87,25.72,29.87S41.17,44.46,68.3,57.33Zm74.94,53.88s4.26,9.09,16.64,9.22c6.63.08,8.21-2.77,8.88-6.18l-19.65-9.17a24.39,24.39,0,0,1-5.88,6.14Z"/>
            <polygon class="cls-1" points="108.33 85.55 110.78 85.01 140.62 98.12 138.75 98.94 108.33 85.55"/>
            <polygon class="cls-1" points="67.66 65.34 110.78 85.01 108.33 85.55 65 65.86 67.66 65.34"/><path class="cls-1" d="M60,61.21C45.9,53,35.12,43.63,29,36c3.76,6.63,13.42,15.91,29.21,25.85Z"/>
            <path class="cls-1" d="M151,92.52a42.37,42.37,0,0,1-.86,4.83,27.13,27.13,0,0,1-1.55,4.58,26.48,26.48,0,0,1-2.35,4.22,41.94,41.94,0,0,1-3,3.85,18.09,18.09,0,0,0,3.64-3.41,18.7,18.7,0,0,0,2.62-4.27,19.58,19.58,0,0,0,1.41-4.82A19.33,19.33,0,0,0,151,92.52Z"/>
            <path class="cls-3" d="M176.54,108.85c1-3.77,6.32-1.22,3.94,4.05"/>
            <path class="cls-1" d="M176.54,108.85a2.53,2.53,0,0,1,.38-1.28,2,2,0,0,1,1.18-.85,2.34,2.34,0,0,1,1.5.14,3,3,0,0,1,1.15.92,3.71,3.71,0,0,1,.7,2.69,4.75,4.75,0,0,1-1,2.43,10,10,0,0,0,.22-2.45,3.8,3.8,0,0,0-.71-2.09,2.16,2.16,0,0,0-1.75-.91,1.69,1.69,0,0,0-1,.42A3.56,3.56,0,0,0,176.54,108.85Z"/>
        </g>
    </g>
</svg>
