<svg height="40" viewBox="0 0 22 21" fill="none" xmlns="http://www.w3.org/2000/svg">
    <path d="M1 1C2.62 1.27 3.79 1.26 4.22 3.62C4.53 5.32 5.32 9.85 5.74 12.22C5.81123 12.6367 6.02844 13.0144 6.35275 13.2856C6.67705 13.5568 7.08728 13.7037 7.51 13.7H17.12C17.5052 13.7015 17.8806 13.5788 18.1904 13.35C18.5003 13.1212 18.7281 12.7986 18.84 12.43L21 5.29H4.7" stroke="#0f1111" stroke-width="0.75" stroke-linecap="round" stroke-linejoin="round"/>
    <path d="M7.42 19.73C8.51353 19.73 9.4 18.8435 9.4 17.75C9.4 16.6565 8.51353 15.77 7.42 15.77C6.32648 15.77 5.44 16.6565 5.44 17.75C5.44 18.8435 6.32648 19.73 7.42 19.73Z" stroke="#0f1111" stroke-width="0.75" stroke-linecap="round" stroke-linejoin="round"/>
    <path d="M17.01 19.73C18.1036 19.73 18.99 18.8435 18.99 17.75C18.99 16.6565 18.1036 15.77 17.01 15.77C15.9165 15.77 15.03 16.6565 15.03 17.75C15.03 18.8435 15.9165 19.73 17.01 19.73Z" stroke="#0f1111" stroke-width="0.75" stroke-linecap="round" stroke-linejoin="round"/>
</svg>