<svg width="234" height="234" viewBox="0 0 234 234" fill="none" xmlns="http://www.w3.org/2000/svg">
    <circle cx="117" cy="117" r="117" fill="white"/>
    <path d="M155.856 95.8917C129.155 108.546 77.7923 132.527 73.7541 134.405C72.9052 133.435 71.9571 132.555 70.9253 131.782V131.782C69.1619 130.245 68.05 128.095 67.8157 125.768C67.5889 124.224 67.8696 120.164 72.1346 120.121C73.2507 120.01 74.3661 120.338 75.2447 121.036C76.1233 121.733 76.6962 122.744 76.8422 123.857C76.8422 123.857 73.3115 122.885 73.2035 126.491C73.0955 130.81 80.7615 131.155 80.9775 125.606C81.018 124.344 80.7864 123.088 80.2985 121.923C79.8106 120.759 79.0778 119.713 78.1498 118.856C77.2218 118 76.1204 117.353 74.9204 116.961C73.7204 116.568 72.4499 116.438 71.1952 116.579C69.1802 116.818 67.3263 117.798 65.9948 119.329C64.6634 120.86 63.9499 122.832 63.9934 124.861C63.9714 127.47 64.5282 130.051 65.6238 132.419V132.419C65.2352 134.887 65.2352 137.401 65.6238 139.869L45.4762 149.262C45.2538 148.875 44.9895 148.513 44.688 148.183C40.4447 143.346 39.3973 147.103 39.2894 149.586C39.0065 149.062 38.5643 148.642 38.0266 148.386C37.489 148.129 36.8838 148.051 36.2985 148.161C33.9987 148.409 32.4979 150.115 32.8002 153.83C33.1025 157.544 36.8816 163.461 39.8184 163.277C41.3624 163.18 42.3774 161.841 42.5285 159.617C45.1523 164.076 49.6223 168.255 56.8997 167.866C61.0433 167.576 65.069 166.36 68.6795 164.306C72.2901 162.252 75.3932 159.414 77.7599 156C79.2592 152.524 79.6366 148.666 78.8396 144.965C82.0032 143.562 126.607 123.727 163.522 106.279C201.82 88.1933 201.831 66.2533 201.831 66.2533C201.831 66.2533 185.138 81.9957 155.856 95.8917ZM74.9418 154.067C74.9418 154.067 70.3422 163.882 56.9752 164.022C49.8167 164.109 48.1107 161.031 47.3765 157.35L68.6039 147.449C70.3157 150.013 72.4646 152.257 74.9526 154.078L74.9418 154.067Z" fill="#231F20"/>
    <path d="M112.635 126.362L109.99 125.779L77.7711 139.934L79.7902 140.82L112.635 126.362Z" fill="white"/>
    <path d="M156.548 104.541L128.162 117.778L130.839 118.426L159.42 105.102L156.548 104.541Z" fill="white"/>
    <path d="M164.862 100.082C180.043 91.2172 191.682 81.1002 198.257 72.8619C194.198 80.0205 183.768 90.0403 166.708 100.773L164.862 100.082Z" fill="white"/>
    <path d="M66.5312 133.888C66.7397 135.643 67.0498 137.384 67.4597 139.103C67.8693 140.798 68.4294 142.453 69.1333 144.048C69.8385 145.641 70.6878 147.166 71.6707 148.605C72.6688 150.052 73.7503 151.44 74.9098 152.762C73.4361 151.722 72.1134 150.483 70.9796 149.08C69.8342 147.677 68.8827 146.126 68.1508 144.469C66.6963 141.144 66.1379 137.496 66.5312 133.888V133.888Z" fill="white"/>
    <path d="M38.9874 151.52C37.9077 147.449 32.1636 150.203 34.7333 155.893Z" fill="#231F20"/>
    <path d="M38.9874 151.52C38.7827 151.118 38.5127 150.753 38.1884 150.44C37.8881 150.175 37.5086 150.015 37.1087 149.987C36.7383 149.989 36.3738 150.079 36.0452 150.25C35.7166 150.421 35.4335 150.667 35.2191 150.969C34.746 151.629 34.4792 152.414 34.4525 153.226C34.4226 154.114 34.5023 155.003 34.6901 155.871C34.0956 155.113 33.722 154.205 33.6104 153.247C33.4821 152.218 33.7525 151.179 34.3662 150.343C34.6941 149.912 35.1247 149.571 35.6186 149.35C36.1271 149.122 36.6965 149.069 37.2382 149.199C37.763 149.334 38.2178 149.661 38.5123 150.116C38.797 150.531 38.9614 151.017 38.9874 151.52V151.52Z" fill="white"/>
    <path d="M78.732 95.8925C105.401 108.547 156.785 132.528 160.834 134.406C161.697 133.437 162.66 132.561 163.706 131.793C165.456 130.247 166.552 128.093 166.773 125.768C166.999 124.224 166.719 120.165 162.454 120.121C161.338 120.011 160.222 120.339 159.344 121.036C158.465 121.734 157.892 122.745 157.746 123.857C157.746 123.857 161.277 122.886 161.385 126.492C161.493 130.811 153.827 131.156 153.611 125.606C153.569 124.344 153.799 123.087 154.286 121.922C154.773 120.756 155.506 119.709 156.435 118.853C157.363 117.996 158.465 117.35 159.666 116.957C160.867 116.565 162.138 116.437 163.393 116.58C165.408 116.818 167.262 117.799 168.594 119.33C169.925 120.861 170.638 122.833 170.595 124.861C170.611 127.47 170.054 130.05 168.965 132.42C169.353 134.888 169.353 137.401 168.965 139.87L189.112 149.263C189.335 148.876 189.599 148.513 189.9 148.184C194.144 143.346 195.191 147.104 195.299 149.587C195.597 149.08 196.048 148.679 196.587 148.443C197.126 148.206 197.725 148.146 198.301 148.27C200.611 148.518 202.112 150.224 201.81 153.938C201.507 157.653 197.728 163.57 194.792 163.386C193.248 163.289 192.222 161.95 192.081 159.726C189.458 164.185 184.988 168.364 177.71 167.975C173.571 167.679 169.551 166.459 165.947 164.403C162.342 162.347 159.245 159.509 156.882 156.098C155.383 152.622 155.006 148.764 155.803 145.063C152.65 143.659 108.047 123.825 71.1308 106.377C32.7682 88.1833 32.7574 66.2433 32.7574 66.2433C32.7574 66.2433 49.4391 81.9965 78.732 95.8925ZM159.647 154.068C159.647 154.068 164.246 163.883 177.613 164.023C184.772 164.109 186.478 161.032 187.201 157.35L165.984 147.449C164.273 150.014 162.124 152.258 159.636 154.079L159.647 154.068Z" fill="#231F20"/>
    <path d="M121.953 126.362L124.599 125.779L156.818 139.934L154.799 140.82L121.953 126.362Z" fill="white"/>
    <path d="M78.0411 104.541L124.599 125.779L121.953 126.362L75.169 105.102L78.0411 104.541Z" fill="white"/>
    <path d="M69.7704 100.082C54.5463 91.2172 42.9069 81.1002 36.299 72.8619C40.3587 80.0205 50.7888 90.0403 67.8377 100.773L69.7704 100.082Z" fill="white"/>
    <path d="M168.025 133.888C167.817 135.643 167.507 137.384 167.097 139.103C166.687 140.798 166.127 142.453 165.423 144.048C164.718 145.641 163.869 147.166 162.886 148.605C161.888 150.052 160.806 151.44 159.647 152.762C161.12 151.722 162.443 150.483 163.577 149.08C164.722 147.677 165.674 146.126 166.406 144.469C167.134 142.807 167.646 141.058 167.928 139.265C168.192 137.484 168.225 135.677 168.025 133.888V133.888Z" fill="white"/>
    <path d="M195.601 151.52C196.681 147.449 202.425 150.203 199.855 155.893Z" fill="#231F20"/>
    <path d="M195.601 151.52C195.612 151.031 195.754 150.554 196.012 150.138C196.306 149.683 196.761 149.355 197.286 149.22C197.827 149.091 198.397 149.144 198.905 149.371C199.395 149.594 199.822 149.935 200.147 150.365C200.766 151.198 201.037 152.24 200.903 153.269C200.797 154.228 200.423 155.137 199.823 155.893C200.011 155.024 200.091 154.136 200.061 153.248C200.034 152.436 199.767 151.651 199.294 150.991C199.08 150.689 198.797 150.442 198.468 150.271C198.139 150.1 197.775 150.01 197.405 150.008C197.005 150.037 196.625 150.196 196.325 150.462C196.026 150.772 195.782 151.129 195.601 151.52V151.52Z" fill="white"/>
</svg>
